<svg width="560" height="545" viewBox="0 0 560 545" fill="none" xmlns="http://www.w3.org/2000/svg">
<path d="M7.11645 282.77C-35.2835 178.77 122.116 56.1032 206.116 7.76988C273.5 -34.8832 587.116 109.77 557.116 157.77C527.116 205.77 510.116 362.77 518.116 474.77C526.116 586.77 169.116 531.77 140.116 522.77C111.116 513.77 60.1165 412.77 7.11645 282.77Z" fill="#D9D9D9"/>
<path d="M384.197 429.802C384.197 439.329 337.695 447.052 280.334 447.052C222.971 447.052 176.47 439.329 176.47 429.802C176.47 420.276 222.971 412.553 280.334 412.553C337.695 412.553 384.197 420.276 384.197 429.802Z" fill="#ECECEC"/>
<path d="M179.027 267.047C179.027 267.047 186.972 220.388 190.335 211.179C192.659 204.815 202.151 188.779 208.927 176.879C210.293 174.479 219.041 168.66 223.241 166.44C228.895 163.452 239.541 168.27 240.317 180.559C240.64 185.672 231.949 191.494 229.52 196.866C226.107 204.408 225.877 214.223 225.597 215.798C225.116 218.496 243.959 239.35 243.135 247.292C242.311 255.236 220.471 282.511 215.739 284.078C211.005 285.646 179.145 274.75 179.027 267.047Z" fill="#FFC800"/>
<path d="M217.818 186.626C222.068 189.754 228.868 191.624 232.532 192.474C235.96 188.42 240.55 184.306 240.31 180.557C239.537 168.273 228.889 163.452 223.236 166.437C220.346 167.966 215.31 171.202 212.005 173.845C212.005 173.845 211.766 182.18 217.818 186.626Z" fill="#ECECEC"/>
<path d="M235.465 169.374C235.553 169.326 235.639 169.447 235.567 169.515C233.677 171.296 231.847 173.162 230.135 175.116C228.575 176.896 227.131 178.767 226.921 181.207C226.909 181.355 226.693 181.35 226.69 181.202C226.653 178.832 227.298 176.336 228.701 174.402C230.401 172.055 232.99 170.734 235.465 169.374Z" fill="#1A2E35"/>
<path d="M229.697 165.074C229.783 165.024 229.872 165.147 229.8 165.216C228.359 166.591 226.721 168.543 224.871 170.866C223.549 172.527 221.227 174.988 222.167 177.284C222.329 177.68 222.1 177.726 221.863 177.367C220.431 175.212 221.903 172.455 223.172 170.611C224.845 168.178 227.177 166.532 229.697 165.074Z" fill="#1A2E35"/>
<g opacity="0.100006">
<path d="M215.744 284.079C220.475 282.506 242.305 255.237 243.133 247.297C243.764 241.225 232.936 227.647 227.989 220.355L187.019 224.374C183.392 241.385 179.024 267.042 179.024 267.042C179.145 274.753 211.005 285.643 215.744 284.079Z" fill="black"/>
</g>
<path d="M102.117 283.978C102.117 283.978 62.3525 280.413 60.9298 283.251C60.0018 285.106 68.7725 308.797 73.7632 316.653C78.7538 324.509 110.781 354.706 119.257 361.357L102.117 283.978Z" fill="#FFC800"/>
<g opacity="0.100006">
<path d="M85.9063 316.344C89.2916 321.672 104.98 336.588 115.844 345.924L102.998 287.982C93.0476 286.678 72.6343 284.253 71.7796 286.206C71.0423 287.884 81.1249 308.817 85.9063 316.344Z" fill="black"/>
</g>
<path d="M140.275 240.587C140.297 239.606 131.498 210.822 144.505 192.914C146.914 189.597 190.693 230.171 190.693 230.171L140.275 240.587Z" fill="#FFC800"/>
<g opacity="0.100006">
<path d="M148.581 238.871L188.969 230.527C184.755 226.643 153.917 198.348 152.097 200.843C142.34 214.274 147.757 235.262 148.581 238.871Z" fill="black"/>
</g>
<path d="M261.549 283.724C261.549 283.724 247.379 246.029 222.813 227.828C219.766 225.571 160.759 227.585 149.033 230.508C145.69 231.34 107.155 266.348 96.1555 288.937C94.3355 292.675 103.261 334.124 117.653 358.827C121.218 364.949 185.182 420.047 226.981 429.368C234.874 431.129 334.799 427.969 358.806 411.427C382.813 394.887 424.663 334.751 427.223 317.963C429.785 301.175 370.059 250.411 349.741 250.416C329.422 250.421 261.549 283.724 261.549 283.724Z" fill="#FFC800"/>
<path d="M170.879 238.714C175.691 231.475 185.339 232.638 193.782 238.251C200.62 242.798 204.747 251.735 200.128 258.682C195.511 265.63 184.448 264.47 178.027 260.202C171.606 255.934 165.655 246.574 170.879 238.714Z" fill="#1A2E35"/>
<path d="M172.186 240.587C176.709 233.782 185.777 234.877 193.714 240.153C200.142 244.425 204.021 252.826 199.681 259.357C195.339 265.887 184.941 264.797 178.905 260.785C172.869 256.774 167.274 247.975 172.186 240.587Z" fill="white"/>
<path d="M178.704 243.297C182.244 237.972 189.342 238.826 195.556 242.957C200.588 246.301 203.624 252.878 200.226 257.99C196.828 263.102 188.688 262.249 183.964 259.108C179.238 255.968 174.86 249.081 178.704 243.297Z" fill="#1A2E35"/>
<path d="M173.619 245.202C175.227 242.785 178.451 243.173 181.271 245.047C183.557 246.566 184.935 249.554 183.393 251.874C181.849 254.195 178.153 253.809 176.007 252.383C173.862 250.955 171.873 247.829 173.619 245.202Z" fill="white"/>
<path d="M138.56 289.263C130.259 296.942 131.977 307.175 138.861 314.618C144.437 320.644 155.059 322.242 163.024 314.874C170.991 307.504 169.227 295.714 163.991 290.054C158.756 284.394 147.573 280.926 138.56 289.263Z" fill="#1A2E35"/>
<path d="M140.802 290.085C132.999 297.302 134.614 306.921 141.085 313.917C146.327 319.582 156.31 321.085 163.798 314.158C171.287 307.23 169.629 296.147 164.707 290.827C159.786 285.506 149.274 282.247 140.802 290.085Z" fill="white"/>
<path d="M146.928 293.104C140.82 298.754 142.084 306.283 147.15 311.759C151.252 316.195 159.066 317.371 164.929 311.948C170.79 306.526 169.492 297.851 165.64 293.686C161.788 289.52 153.56 286.968 146.928 293.104Z" fill="#1A2E35"/>
<path d="M140.075 296.862C137.302 299.427 137.876 302.846 140.176 305.334C142.039 307.347 145.588 307.882 148.25 305.419C150.911 302.957 150.322 299.017 148.572 297.126C146.823 295.234 143.087 294.075 140.075 296.862Z" fill="white"/>
<path d="M172.244 277.363C173.065 277.835 179.241 275.389 179.632 274.863C180.017 274.347 180.663 267.647 179.999 266.965C179.343 266.287 175.912 270.305 175.107 271.385C174.297 272.471 171.424 276.905 172.244 277.363Z" fill="#1A2E35"/>
<path d="M187.881 267.591C188.4 269.129 188.895 270.671 189.237 272.225C189.395 272.997 189.548 273.783 189.523 274.507C189.513 274.858 189.425 275.205 189.312 275.335C189.193 275.463 188.895 275.645 188.597 275.711C187.971 275.881 187.208 275.819 186.464 275.73C185.712 275.623 184.955 275.451 184.203 275.234C182.703 274.81 181.185 274.278 179.761 273.657L177.119 272.505L178.736 274.897C179.8 276.471 180.767 278.186 181.547 279.921C181.936 280.79 182.271 281.679 182.476 282.573C182.66 283.454 182.768 284.375 182.476 285.081L182.353 285.331L182.195 285.558C182.059 285.711 181.909 285.857 181.744 285.993C181.409 286.261 181.02 286.49 180.601 286.675C179.76 287.051 178.817 287.262 177.865 287.414C175.951 287.703 173.968 287.718 171.993 287.607C173.927 288.053 175.923 288.27 177.944 288.181C178.955 288.134 179.975 287.982 180.979 287.641C181.967 287.281 183.004 286.769 183.616 285.607C184.147 284.482 184.065 283.323 183.891 282.286C183.696 281.243 183.369 280.261 182.992 279.31C182.213 277.41 181.232 275.667 180.115 273.95L179.089 275.187C180.643 275.823 182.183 276.367 183.812 276.754C184.625 276.943 185.456 277.09 186.309 277.166C187.165 277.231 188.059 277.229 188.984 276.911C189.449 276.734 189.892 276.505 190.268 275.991C190.601 275.437 190.576 274.933 190.563 274.486C190.489 273.59 190.253 272.793 189.98 272.011C189.419 270.459 188.709 268.991 187.881 267.591Z" fill="#1A2E35"/>
<path d="M201.361 240.094C204.011 236.142 206.788 232.287 209.649 228.498C212.517 224.714 215.425 220.96 218.504 217.347C219.995 215.502 221.561 213.719 223.108 211.919C224.688 210.148 226.268 208.378 227.88 206.636C231.068 203.115 234.437 199.767 237.78 196.379C235.988 197.94 234.18 199.494 232.445 201.126C230.721 202.767 229.003 204.416 227.347 206.128C223.997 209.519 220.848 213.1 217.769 216.735C214.74 220.414 211.807 224.175 209.057 228.066C207.685 230.011 206.349 231.984 205.044 233.974C203.779 235.992 202.503 238.004 201.361 240.094Z" fill="#1A2E35"/>
<path d="M204.727 240.283C206.133 238.664 207.535 237.043 208.975 235.456C210.393 233.852 211.829 232.261 213.283 230.691C216.181 227.54 219.104 224.412 222.128 221.384C223.605 219.837 225.131 218.337 226.643 216.823L231.275 212.38L233.608 210.172L235.988 208.019C237.539 206.536 239.199 205.184 240.775 203.724C237.332 206.283 233.976 208.969 230.777 211.836C227.557 214.677 224.469 217.668 221.445 220.715C218.467 223.809 215.524 226.939 212.735 230.203C209.941 233.464 207.227 236.793 204.727 240.283Z" fill="#1A2E35"/>
<path d="M206.083 242.905C207.409 241.706 208.728 240.502 210.079 239.333C211.412 238.148 212.749 236.965 214.111 235.812C216.828 233.498 219.535 231.178 222.303 228.928C225.056 226.662 227.836 224.429 230.64 222.221C233.433 219.998 236.287 217.856 239.101 215.645C237.583 216.589 236.081 217.562 234.589 218.55C233.119 219.569 231.643 220.58 230.196 221.633C227.279 223.709 224.472 225.933 221.693 228.188C218.933 230.466 216.229 232.814 213.621 235.266C211.011 237.713 208.451 240.22 206.083 242.905Z" fill="#1A2E35"/>
<path d="M146.232 329.599C144.188 331.731 142.274 333.982 140.356 336.228C138.48 338.508 136.634 340.815 134.834 343.158C131.234 347.846 127.842 352.688 124.59 357.623C121.392 362.591 118.29 367.627 115.473 372.824C114.036 375.404 112.696 378.038 111.366 380.676C110.694 381.991 110.081 383.335 109.465 384.678L107.626 388.704C110.386 383.484 113.112 378.259 116.114 373.186C117.581 370.63 119.11 368.114 120.632 365.591C122.202 363.1 123.745 360.588 125.39 358.146C128.565 353.183 131.958 348.364 135.421 343.598C138.89 338.834 142.472 334.148 146.232 329.599Z" fill="#1A2E35"/>
<path d="M147.68 333.521C144.49 337.783 141.547 342.226 138.712 346.734C135.874 351.239 133.23 355.866 130.652 360.527C128.13 365.218 125.708 369.967 123.494 374.813C121.24 379.639 119.255 384.587 117.427 389.585C118.562 387.174 119.552 384.709 120.728 382.322L122.404 378.706L124.159 375.129C125.322 372.741 126.538 370.379 127.734 368.007C128.975 365.659 130.196 363.302 131.492 360.985C133.992 356.298 136.64 351.691 139.339 347.114C140.684 344.825 142.056 342.549 143.452 340.286C144.827 338.01 146.25 335.766 147.68 333.521Z" fill="#1A2E35"/>
<path d="M151.285 334.176C149.005 337.985 146.982 341.941 145.045 345.934C143.114 349.932 141.333 354.001 139.614 358.093C137.971 362.217 136.338 366.348 134.907 370.55C134.174 372.645 133.503 374.76 132.821 376.87C132.171 378.993 131.554 381.125 130.962 383.262C132.514 379.105 133.997 374.93 135.599 370.802C137.17 366.661 138.791 362.541 140.498 358.458C142.139 354.346 143.927 350.296 145.71 346.244C146.594 344.212 147.518 342.201 148.451 340.192C149.363 338.172 150.321 336.174 151.285 334.176Z" fill="#1A2E35"/>
<g opacity="0.100006">
<path d="M185.163 308.697C187.457 307.499 189.768 306.463 192.045 305.425C193.167 304.871 194.313 304.393 195.384 303.813C196.44 303.25 197.535 302.655 198.269 302.007C198.948 301.434 199.477 300.395 199.988 299.319C200.513 298.246 200.925 297.083 201.384 295.925C202.256 293.591 203.084 291.201 204.072 288.807C204.175 291.401 203.907 293.966 203.383 296.502C203.148 297.779 202.763 299.026 202.319 300.293C201.835 301.521 201.279 302.869 200.052 303.991C198.863 304.999 197.668 305.558 196.449 306.093C195.225 306.587 194.011 307.031 192.763 307.37C190.279 308.066 187.755 308.561 185.163 308.697Z" fill="black"/>
</g>
<path d="M425.555 323.65C438.007 298.211 451.873 260.322 439.711 231.275C427.548 202.228 361.773 154.022 351.616 125.083C341.457 96.1458 351.876 81.4098 342.739 79.7044C338.057 78.8298 327.929 103.574 332.885 127.911C339.645 161.112 407.355 221.772 415.545 240.76C423.739 259.748 415.088 275.898 404.18 292.506L425.555 323.65Z" fill="#FFC800"/>
<path d="M298.659 235.66C298.216 235.639 297.768 235.555 297.329 235.4C294.9 234.543 293.623 231.881 294.476 229.452C294.544 229.257 301.295 209.589 301.757 177.132C302.036 157.695 291.832 149.585 281.027 141.001C270.999 133.032 260.629 124.793 261.425 108.032C262.063 94.6281 271.633 88.4188 280.077 82.9415C288.365 77.5655 296.193 72.4881 297.912 60.9361C301.647 35.8415 279.164 12.3521 278.936 12.1188C277.143 10.2708 277.183 7.31747 279.028 5.52147C280.873 3.72547 283.824 3.7628 285.623 5.60413C286.683 6.69347 311.567 32.5948 307.144 62.3095C304.804 78.0255 293.909 85.0935 285.157 90.7721C276.477 96.4028 271.139 100.269 270.748 108.476C270.179 120.461 277.529 126.3 286.833 133.693C297.795 142.403 311.433 153.241 311.091 177.267C310.603 211.385 303.579 231.7 303.281 232.548C302.579 234.539 300.664 235.755 298.659 235.66Z" fill="#375A64"/>
<path d="M285.772 379.596C292.62 379.596 294.551 374.987 294.551 374.987C294.551 374.987 297.849 380.356 303.443 378.655C308.973 376.971 308.377 370.159 308.377 370.159C308.377 370.159 311.712 374.642 317.723 371.698C322.56 369.328 320.011 362.039 320.011 362.039C320.011 362.039 324.572 366.794 331.047 362.967C333.723 361.387 333.401 356.376 333.844 356.036C348.649 344.663 378.653 320.76 364.092 261.73C353.024 216.862 309.724 202.791 272.021 204.672C271.447 204.7 271.152 201.612 267.077 201.612C263.244 201.612 262.131 204.218 262.131 204.218C262.131 204.218 259.631 200.996 255.383 203.023C251.139 205.047 252.192 209.504 252.192 209.504C250.689 208.703 248.293 204.9 242.808 207.028C237.351 209.146 238.365 214.991 238.365 214.991C238.365 214.991 234.845 212.12 230.271 214.767C229.075 215.46 228.759 220.499 228.228 221.346C221.679 213.731 217.985 222.502 219.511 225.22C221.565 228.876 216.447 231.194 215.475 232.162C192.324 255.199 185.581 303.575 202.663 334.215C224.469 373.335 259.367 376.835 278.529 375.866C278.529 375.866 280.337 379.596 285.772 379.596Z" fill="#375A64"/>
<path d="M307.292 354.698C285.217 343.381 271.47 319.439 263.416 296.803C254.848 272.731 252.652 246.842 256.869 221.662C257.185 219.773 254.293 218.961 253.976 220.863C249.53 247.41 251.922 274.734 261.389 299.975C269.838 322.505 283.693 345.966 305.777 357.287C307.493 358.169 309.013 355.579 307.292 354.698Z" fill="#2B454E"/>
<path d="M281.154 362.417C244.32 329.206 225.697 280.834 230.592 231.469C230.781 229.55 227.78 229.562 227.59 231.469C222.626 281.546 241.672 330.854 279.033 364.538C280.464 365.829 282.593 363.713 281.154 362.417Z" fill="#2B454E"/>
<path d="M325.06 296.52C325.049 296.518 325.041 296.524 325.032 296.522C324.162 295.848 323.292 295.177 322.453 294.473C329.366 292.484 334.613 287.054 336.384 279.938C338.608 281.117 340.808 282.356 342.973 283.672C342.936 285.869 342.749 288.048 342.445 290.205C337.885 295.05 331.688 297.288 325.06 296.52ZM321.469 349.101C321.365 349.141 321.301 349.21 321.214 349.264C318.836 347.441 316.497 345.576 314.246 343.622C336.088 336.714 351.585 318.742 355.017 295.982C355.034 295.866 355.006 295.769 355.001 295.66C355.564 295.461 356.105 295.217 356.644 294.97C357.533 318.92 343.882 340.293 321.469 349.101ZM305.304 335.182C316.861 330.701 327.508 325.392 335.24 315.23C339.522 309.604 342.469 303.257 344.172 296.55C344.209 296.558 344.232 296.582 344.273 296.589C346.897 297.005 349.458 296.964 351.876 296.512C348.169 317.87 333.534 334.702 312.646 341.001C312.309 341.104 312.088 341.298 311.917 341.521C309.648 339.465 307.425 337.366 305.304 335.182ZM299.924 329.292C302.344 330.309 304.892 330.906 307.517 331.088C306.052 331.686 304.572 332.269 303.074 332.838C301.994 331.677 300.954 330.49 299.924 329.292ZM312.616 327.94C306.649 328.9 300.945 327.312 296.169 323.676C296.478 321.902 296.965 320.217 297.622 318.644C305.421 323.51 314.437 324.91 323.126 322.836C320.213 324.929 317.102 326.694 313.857 328.274C313.537 328.012 313.12 327.86 312.616 327.94V327.94ZM291.456 318.509C291.874 318.282 292.212 317.894 292.26 317.298C293.034 307.881 302.104 303.392 309.804 300.006C310.754 300.965 311.738 301.892 312.737 302.802C303.144 304.768 295.798 311.917 293.578 321.405C292.862 320.445 292.146 319.485 291.456 318.509V318.509ZM286.762 311.51C286.977 311.333 287.156 311.098 287.225 310.734C288.913 301.857 295.637 295.362 304.582 294.224C305.556 295.42 306.572 296.581 307.613 297.718C299.45 301.398 291.092 306.328 289.484 315.657C288.56 314.284 287.636 312.912 286.762 311.51V311.51ZM277.854 294.588C277.984 294.47 278.105 294.332 278.198 294.141C281.725 286.897 288.998 282.658 296.981 283.09C298.645 286.034 300.485 288.866 302.497 291.564C293.845 293.354 287.06 299.521 284.744 308.162C282.177 303.765 279.893 299.224 277.854 294.588V294.588ZM272.738 280.898C273.225 280.814 273.661 280.506 273.814 279.873C275.32 273.681 279.482 268.825 285.316 266.292C285.792 266.085 286.014 265.745 286.072 265.376C287.376 265.476 288.681 265.574 289.978 265.714C289.897 265.964 289.862 266.24 289.958 266.562C291.353 271.26 293.17 275.769 295.356 280.057C287.561 280.188 280.338 284.393 276.398 291.149C275.033 287.782 273.814 284.362 272.738 280.898V280.898ZM268.96 265.188C273.04 264.954 277.101 264.941 281.141 265.097C276.673 267.8 273.309 271.976 271.578 276.921C270.517 273.057 269.633 269.145 268.96 265.188V265.188ZM316.676 289.16C322.526 287.074 326.978 282.08 328.254 275.973C330.077 276.782 331.88 277.652 333.672 278.548C333.656 278.597 333.625 278.625 333.612 278.678C332.017 285.765 326.745 290.722 319.682 292.044C318.658 291.104 317.65 290.149 316.676 289.16ZM313.066 270.368C317.248 271.626 321.366 273.096 325.414 274.777C324.338 280.498 320.284 285.106 314.601 286.67C314.525 286.692 314.477 286.74 314.41 286.769C311.972 284.092 309.722 281.238 307.637 278.252C310.816 276.893 313.029 273.828 313.066 270.368V270.368ZM306.444 275.542C306.272 275.605 306.144 275.706 306.018 275.805C304.268 273.104 302.624 270.32 301.166 267.398C304.156 267.986 307.11 268.722 310.045 269.528C310.257 272.086 308.936 274.616 306.444 275.542V275.542ZM304.84 309.468C307.605 307.464 310.896 306.085 314.562 305.488C314.92 305.43 315.152 305.264 315.328 305.061C318.14 307.409 321.137 309.548 324.272 311.504C317.732 314.769 310.504 314.046 304.84 309.468V309.468ZM328.124 318.008C318.464 322.401 307.844 321.526 298.98 315.954C299.965 314.281 301.145 312.757 302.52 311.424C309.477 317.269 318.581 318.138 326.609 313.674C326.833 313.55 326.993 313.394 327.112 313.224C328.468 313.992 329.848 314.724 331.256 315.413C330.513 316.284 329.74 317.102 328.95 317.893C328.688 317.864 328.413 317.877 328.124 318.008V318.008ZM329.225 299.588C333.706 299.301 337.956 297.717 341.54 295.017C340.724 298.424 339.572 301.736 338.065 304.897C334.982 303.298 332.044 301.514 329.225 299.588V299.588ZM336.698 307.568C335.652 309.453 334.477 311.276 333.173 313.025C322.77 308.01 313.809 300.854 306.746 292.132C306.653 291.709 306.41 291.341 305.981 291.192C300.19 283.802 295.744 275.326 292.95 266.069C294.48 266.269 296.006 266.485 297.525 266.737C297.533 266.761 297.53 266.781 297.541 266.805C305.773 284.47 319.385 298.624 336.698 307.568ZM267.824 256.684C269.238 256.637 270.653 256.589 272.068 256.542C273.994 256.477 274.002 253.476 272.068 253.541C270.577 253.59 269.085 253.641 267.593 253.692C267.553 253.117 267.494 252.548 267.461 251.973C267.913 251.966 268.369 251.786 268.705 251.349C270.749 248.684 272.91 246.137 275.125 243.645C307.02 241.212 338.385 253.898 359.594 277.877C358.558 279.021 357.397 280.041 356.125 280.904C356.048 280.786 355.98 280.668 355.852 280.56C333.848 262.201 306.146 252.601 277.49 253.554C275.564 253.62 275.556 256.621 277.49 256.556C305.204 255.633 332.064 264.742 353.421 282.436C351.829 283.176 350.13 283.701 348.364 283.986C348.288 283.638 348.086 283.308 347.708 283.062C324.126 267.77 296.526 260.502 268.473 262.208C268.208 260.374 268 258.532 267.824 256.684V256.684ZM277.99 240.462C279.798 238.55 281.676 236.712 283.585 234.909C283.785 235.01 284.012 235.08 284.293 235.072C315.493 234.134 344.421 248.862 361.854 274.758C361.716 274.99 361.593 275.233 361.448 275.458C340.41 251.857 309.488 238.934 277.99 240.462V240.462ZM294.092 225.986C320.437 223.924 344.046 243.284 358.008 264.76C340.274 243.873 314.504 231.904 286.721 232.037C289.098 229.928 291.573 227.93 294.092 225.986V225.986ZM306.768 217.27C332.13 224.578 354.332 238.152 361.253 264.25C347.601 242.674 324.352 222.909 298.258 222.84C301.009 220.876 303.865 219.042 306.768 217.27V217.27ZM334.041 356.597C358.085 342.584 366.013 314.674 366.32 288.238C366.328 287.597 365.989 287.189 365.549 286.973C366.348 285.654 367.033 284.228 367.562 282.682C368.189 280.852 365.292 280.065 364.669 281.884C361.802 290.262 353.848 295.088 345.07 293.696C344.98 293.681 344.906 293.706 344.821 293.705C345.246 291.553 345.569 289.377 345.741 287.17C345.86 287.194 345.965 287.234 346.102 287.229C355.173 286.842 362.908 281.2 366.141 272.737C366.505 271.786 365.872 271.148 365.097 270.997C365.066 270.874 365.053 270.752 364.984 270.624C364.966 270.589 364.945 270.553 364.925 270.518C365.26 270.189 365.477 269.732 365.381 269.156C360.354 239.35 337.174 223.496 310.25 215.18C310.42 215.084 310.58 214.976 310.749 214.881C312.429 213.93 310.92 211.337 309.234 212.289C308.088 212.938 306.968 213.621 305.842 214.298C305.788 214.329 305.733 214.356 305.682 214.394C293.693 221.645 282.997 230.529 273.662 240.878C273.352 241.04 273.142 241.304 273.005 241.601C271.06 243.786 269.152 246.016 267.328 248.33C267.256 245.584 267.248 242.828 267.369 240.06C267.816 240.049 268.262 239.854 268.578 239.388C277.281 226.53 289.032 216.626 303.113 210.113C304.864 209.304 303.341 206.716 301.597 207.522C287.898 213.86 276.45 223.414 267.656 235.576C268.284 227.938 269.66 220.253 271.861 212.588C272.394 210.729 269.5 209.936 268.966 211.79C253.302 266.349 277.976 321.889 322.95 354.313C324.52 355.444 326.02 352.842 324.465 351.721C324.278 351.588 324.102 351.442 323.918 351.308C346.844 341.533 360.901 319.258 359.618 294.142C359.604 293.864 359.518 293.638 359.401 293.44C360.822 292.493 362.124 291.361 363.281 290.064C362.644 315.445 354.78 341.938 331.057 354.849C330.854 354.96 330.704 355.097 330.588 355.245L327.97 354.761C326.082 354.413 325.273 357.304 327.172 357.656L332.233 358.59C333.533 358.83 334.297 357.542 334.041 356.597Z" fill="#2B454E"/>
<path d="M211.093 336.151C211.425 335.911 211.676 335.548 211.724 335.044C211.865 333.586 212.073 332.151 212.316 330.727C220.91 334.031 229.869 334.795 238.946 333.106C239.232 333.052 239.437 332.93 239.605 332.782C241.137 335.183 242.756 337.535 244.437 339.847C244.302 339.852 244.173 339.846 244.024 339.894C232.708 343.568 221.16 342.232 211.093 336.151ZM214.798 320.983C220.89 323.75 227.24 324.606 233.873 323.551C233.978 323.534 234.044 323.483 234.133 323.452C235.356 325.748 236.669 328.002 238.024 330.231C229.426 331.808 220.99 330.912 212.884 327.751C213.396 325.448 214.034 323.19 214.798 320.983ZM215.832 318.188C218.093 312.598 221.194 307.362 225.125 302.572C227.216 308.788 229.762 314.84 232.717 320.7C226.905 321.555 221.168 320.7 215.845 318.191C215.841 318.188 215.837 318.19 215.832 318.188V318.188ZM264.209 362.211C264.369 362.128 264.474 362.019 264.58 361.912C265.982 362.631 267.686 360.774 266.352 359.587C233.297 330.179 216.848 287.052 221.736 243.07C221.949 241.154 218.946 241.17 218.734 243.07C218.616 244.146 218.514 245.22 218.424 246.294C211.337 246.8 204.948 249.839 200.182 255.138C198.896 256.57 201.01 258.699 202.305 257.259C206.493 252.6 211.968 249.826 218.206 249.32C218.044 251.967 217.95 254.61 217.932 257.246C209.473 258.982 201.898 262.834 195.456 268.612C194.016 269.903 196.144 272.019 197.578 270.734C203.456 265.462 210.286 262.019 217.925 260.316C217.95 262.016 217.998 263.715 218.086 265.407C208.846 266.906 200.637 271.314 194.254 278.186C192.941 279.6 195.058 281.727 196.376 280.308C202.304 273.927 209.761 269.927 218.27 268.416C218.338 269.347 218.408 270.28 218.494 271.207C208.916 273.878 200.376 278.718 193.15 285.555C191.745 286.886 193.87 289.004 195.273 287.678C202.022 281.29 209.916 276.808 218.824 274.246C219.05 276.21 219.302 278.171 219.61 280.119C219.346 280.084 219.07 280.094 218.781 280.22C208.218 284.8 199.574 292.388 193.569 302.2C192.56 303.851 195.153 305.362 196.161 303.715C201.87 294.384 210.06 287.318 220.058 282.924C220.381 284.727 220.737 286.52 221.132 288.306C220.842 288.338 220.549 288.434 220.282 288.683C209.033 299.199 202.961 313.423 203.121 328.818C203.14 330.747 206.141 330.752 206.121 328.818C205.973 314.419 211.51 301.292 221.85 291.348C222.498 293.996 223.246 296.615 224.048 299.215C215.237 309.402 210.07 321.458 208.742 334.875C207.46 334.803 206.58 336.804 207.938 337.711C218.98 345.07 232.205 346.884 244.821 342.788C245.41 342.596 245.705 342.16 245.804 341.683C247.117 343.427 248.477 345.139 249.874 346.826C237.768 353.968 223.852 353.411 212.208 345.235C210.624 344.123 209.122 346.724 210.693 347.827C223.288 356.671 238.812 357.111 251.874 349.128C253.476 350.975 255.133 352.778 256.833 354.548C247.249 359.896 236.542 361.15 225.889 358.126C224.028 357.598 223.233 360.492 225.092 361.019C236.732 364.323 248.592 362.823 259.006 356.762C260.054 357.806 261.125 358.832 262.209 359.847C253.966 363.966 245.186 365.62 235.985 364.864C234.061 364.706 234.07 367.708 235.985 367.864C245.884 368.679 255.378 366.736 264.209 362.211" fill="#2B454E"/>
<path d="M247.796 298.036C235.838 272.38 238.062 243.923 240.524 216.519C240.696 214.596 237.695 214.608 237.523 216.519C235.003 244.564 232.986 273.335 245.206 299.551C246.02 301.299 248.608 299.778 247.796 298.036Z" fill="#2B454E"/>
<path d="M263.451 215.937C263.873 212.14 264.297 208.344 264.72 204.548C264.933 202.632 261.932 202.646 261.72 204.548C261.296 208.344 260.873 212.14 260.449 215.937C260.236 217.853 263.239 217.837 263.451 215.937Z" fill="#2B454E"/>
<path d="M308.402 369.87C284.905 359.391 266.478 340.387 256.96 316.452C256.254 314.679 253.352 315.452 254.066 317.248C263.864 341.886 282.649 361.651 306.888 372.46C308.637 373.24 310.165 370.656 308.402 369.87Z" fill="#2B454E"/>
<path d="M322.336 360.376C298.952 342.458 280.501 319.195 268.223 292.428C267.419 290.676 264.832 292.198 265.632 293.943C278.144 321.219 297.012 344.722 320.821 362.966C322.355 364.14 323.851 361.535 322.336 360.376Z" fill="#2B454E"/>
<path d="M266.355 287.375C266.355 285.444 263.355 285.442 263.355 287.375C263.355 289.306 266.355 289.308 266.355 287.375Z" fill="#2B454E"/>
<path d="M254.519 290.233C246.012 264.226 244.944 236.821 251.466 210.244C251.926 208.369 249.032 207.569 248.572 209.446C241.931 236.514 242.959 264.538 251.626 291.03C252.223 292.858 255.123 292.076 254.519 290.233Z" fill="#2B454E"/>
<path d="M250.727 305.378C250.727 303.447 247.727 303.444 247.727 305.378C247.727 307.308 250.727 307.312 250.727 305.378Z" fill="#2B454E"/>
<path d="M276.667 373.371C277.645 373.879 278.652 374.347 279.713 374.734C281.529 375.396 282.313 372.498 280.511 371.84C276.333 370.318 272.772 367.582 270.223 363.939C269.124 362.368 266.521 363.866 267.632 365.454C267.856 365.774 268.097 366.072 268.332 366.379C262.14 369.192 255.589 370.226 248.768 369.523C246.848 369.326 246.861 372.328 248.768 372.523C256.303 373.298 263.567 371.967 270.365 368.732C271.333 369.722 272.399 370.59 273.508 371.399C271.1 372.211 268.608 372.715 266.06 372.906C264.147 373.05 264.131 376.051 266.06 375.906C269.757 375.63 273.249 374.771 276.667 373.371Z" fill="#2B454E"/>
<path d="M222.376 237.621C222.754 235.044 223.131 232.468 223.51 229.89C223.592 229.329 223.379 228.878 223.054 228.55C225.92 227.518 228.184 225.29 229.206 222.268C229.824 220.433 226.928 219.648 226.312 221.47C225.462 223.986 223.151 225.882 220.491 226.144C218.587 226.329 218.567 229.332 220.491 229.144C220.532 229.14 220.571 229.128 220.612 229.124C220.235 231.69 219.859 234.257 219.483 236.824C219.206 238.712 222.096 239.529 222.376 237.621Z" fill="#2B454E"/>
<path d="M203.526 340.615C203.526 340.615 227.591 299.859 234.017 292.455C238.458 287.339 254.877 278.283 265.453 269.581C267.583 267.828 271.098 260.189 275.813 259.612C282.162 258.837 291.683 272.029 288.026 283.788C284.367 295.548 266.723 306.999 265.311 309.347C263.901 311.696 274.067 337.897 270.465 345.025C266.861 352.152 236.73 369.843 231.749 369.62C226.769 369.396 200.89 347.855 203.526 340.615Z" fill="#FFC800"/>
<path d="M274.039 285.901C277.536 288.772 281.774 289.441 285.364 289.298C286.524 287.484 287.452 285.645 288.027 283.78C291.679 272.032 282.166 258.84 275.818 259.613C271.09 260.188 267.579 267.829 265.452 269.589C265.452 269.589 266.286 279.536 274.039 285.901" fill="#ECECEC"/>
<path d="M283.788 263.648C283.864 263.583 283.974 263.686 283.917 263.767C282.418 265.89 280.997 268.082 279.708 270.338C278.536 272.392 277.492 274.512 277.772 276.948C277.789 277.094 277.577 277.132 277.545 276.987C277.037 274.674 277.173 272.098 278.16 269.923C279.36 267.286 281.633 265.474 283.788 263.648" fill="#1A2E35"/>
<path d="M278.257 259.499C278.33 259.433 278.443 259.535 278.386 259.619C277.246 261.251 276.03 263.491 274.681 266.137C273.717 268.027 271.931 270.903 273.31 272.965C273.547 273.32 273.333 273.411 273.027 273.107C271.195 271.28 272.089 268.285 272.965 266.224C274.121 263.507 276.078 261.429 278.257 259.499Z" fill="#1A2E35"/>
<path d="M215.342 320.977C214.701 322.75 213.906 324.422 213.06 326.061C212.222 327.705 211.297 329.291 210.362 330.873C209.394 332.433 208.424 333.989 207.369 335.495C206.325 337.011 205.24 338.491 204.058 339.957C204.496 338.117 205.222 336.389 206.016 334.715C206.804 333.035 207.71 331.423 208.653 329.837C209.628 328.269 210.629 326.719 211.74 325.238C212.84 323.751 214.004 322.306 215.342 320.977Z" fill="#1A2E35"/>
<path d="M269.368 346.624C266.479 350.253 262.929 353.276 259.316 356.142C255.684 359.004 251.824 361.566 247.848 363.932C243.844 366.25 239.689 368.316 235.404 370.062C231.123 371.816 226.675 373.17 222.153 374.08C226.339 372.112 230.488 370.246 234.541 368.168C238.58 366.068 242.595 363.948 246.505 361.632C250.436 359.352 254.284 356.932 258.109 354.457C261.907 351.94 265.728 349.441 269.368 346.624Z" fill="#1A2E35"/>
<path d="M242.378 365.466C241.73 366.666 240.922 367.755 240.056 368.787C239.193 369.827 238.238 370.782 237.244 371.697C235.232 373.485 232.98 375.082 230.414 376.014C231.409 375.078 232.418 374.227 233.406 373.346C234.384 372.455 235.385 371.603 236.353 370.706C238.328 368.951 240.256 367.159 242.378 365.466Z" fill="#1A2E35"/>
<path d="M333.996 369.707C333.996 369.707 289.596 306.142 302.748 279.823C312.436 260.439 359.401 232.992 359.401 232.992C359.401 232.992 337.239 204.275 336.944 198.454C336.651 192.632 351.307 192.367 359.181 194.274C367.053 196.18 399.235 235.26 399.624 240.179C400.013 245.096 389.281 262.846 390.753 270.47C392.227 278.094 403.475 286.912 404.251 288.214C405.025 289.515 412.428 321.543 405.815 332.114C399.201 342.683 343.523 374.684 333.996 369.707Z" fill="#FFC800"/>
<path d="M348.987 218.992C361.327 220.408 368.082 206.824 369.94 202.376C365.458 198.012 361.48 194.829 359.176 194.272C351.314 192.371 336.65 192.629 336.946 198.453C337.127 202.065 343.88 211.968 348.987 218.992Z" fill="#ECECEC"/>
<path d="M346.543 192.9C346.554 192.796 346.711 192.793 346.727 192.897C347.119 195.594 347.62 198.289 348.27 200.937C348.859 203.348 349.598 205.717 351.57 207.368C351.687 207.466 351.555 207.649 351.426 207.561C349.366 206.168 347.61 204.109 346.792 201.741C345.798 198.866 346.222 195.844 346.543 192.9Z" fill="#1A2E35"/>
<path d="M339.335 193.736C339.344 193.632 339.504 193.63 339.52 193.734C339.832 195.8 340.524 198.382 341.408 201.371C342.039 203.508 342.756 206.984 345.296 207.559C345.733 207.659 345.636 207.882 345.184 207.871C342.469 207.803 340.985 204.879 340.165 202.678C339.083 199.774 339.072 196.78 339.335 193.736Z" fill="#1A2E35"/>
<path d="M305.229 316.449C308.2 321.967 311.079 327.499 313.956 333.028C316.856 338.544 319.711 344.076 322.664 349.552C325.596 355.039 328.599 360.481 331.661 365.897C334.772 371.285 337.961 376.619 341.291 381.929C337.076 377.289 333.356 372.209 329.888 366.985C326.437 361.748 323.308 356.312 320.315 350.809C317.388 345.271 314.617 339.653 312.089 333.927C309.553 328.205 307.188 322.405 305.229 316.449Z" fill="#1A2E35"/>
<path d="M391.796 273.51C395.257 277.582 398.748 281.602 402.545 285.201C403.025 285.642 403.509 286.077 404 286.497C404.512 286.94 404.933 287.226 405.593 287.949C406.673 289.261 407.092 290.654 407.493 292.009C408.232 294.742 408.448 297.453 408.648 300.156C408.91 305.562 408.693 310.925 408.196 316.254C407.7 321.581 406.965 326.881 405.816 332.113C405.861 326.761 406.014 321.445 406.117 316.14C406.19 310.837 406.288 305.537 405.986 300.304C405.849 297.701 405.634 295.072 405.054 292.637C404.781 291.438 404.398 290.205 403.794 289.43C403.589 289.14 402.962 288.593 402.492 288.137C402.008 287.652 401.538 287.158 401.074 286.662C397.418 282.646 394.356 278.214 391.796 273.51Z" fill="#1A2E35"/>
<path d="M327.465 360.908C328.753 363.37 329.699 365.921 330.611 368.482C331.493 371.058 332.317 373.626 332.97 376.325C331.349 374.054 330.274 371.496 329.353 368.921C328.475 366.324 327.746 363.676 327.465 360.908Z" fill="#1A2E35"/>
<path d="M407.339 312.328C408.681 314.009 409.603 315.908 410.357 317.871C410.715 318.86 411.029 319.872 411.229 320.917C411.432 321.955 411.568 323.044 411.381 324.117C411.015 323.109 410.613 322.172 410.231 321.212C409.837 320.26 409.48 319.297 409.108 318.335C408.409 316.391 407.721 314.44 407.339 312.328Z" fill="#1A2E35"/>
</svg>
